# Blender 4.0.2
# www.blender.org
mtllib test_sphere.mtl
o Icosphere
v -0.015373 -1.224958 -0.000001
v 0.833722 -0.576315 0.616896
v -0.339692 -0.576315 0.998168
v -1.064910 -0.576310 -0.000001
v -0.339692 -0.576315 -0.998169
v 0.833722 -0.576315 -0.616897
v 0.308946 0.473238 0.998168
v -0.864468 0.473238 0.616896
v -0.864468 0.473238 -0.616897
v 0.308946 0.473238 -0.998169
v 1.034165 0.473233 -0.000001
v -0.015373 1.121881 -0.000001
v -0.206001 -1.049713 0.586703
v 0.483709 -1.049713 0.362599
v 0.293083 -0.668449 0.949309
v 0.982794 -0.668447 -0.000001
v 0.483709 -1.049713 -0.362601
v -0.632274 -1.049710 -0.000001
v -0.822907 -0.668448 0.586705
v -0.206001 -1.049713 -0.586705
v -0.822907 -0.668448 -0.586707
v 0.293083 -0.668449 -0.949311
v 1.100617 -0.051538 0.362601
v 1.100617 -0.051538 -0.362602
v -0.015373 -0.051538 1.173419
v 0.674346 -0.051538 0.949315
v -1.131362 -0.051538 0.362601
v -0.705092 -0.051538 0.949315
v -0.705092 -0.051538 -0.949317
v -1.131362 -0.051538 -0.362602
v 0.674346 -0.051538 -0.949317
v -0.015373 -0.051538 -1.173420
v 0.792162 0.565371 0.586705
v -0.323828 0.565372 0.949309
v -1.013539 0.565370 -0.000001
v -0.323828 0.565372 -0.949311
v 0.792162 0.565371 -0.586707
v 0.175256 0.946636 0.586703
v 0.601529 0.946633 -0.000001
v -0.514455 0.946636 0.362599
v -0.514455 0.946636 -0.362601
v 0.175256 0.946636 -0.586705
v -0.859114 -0.596034 -0.560401
v -0.901543 -0.511177 -0.529575
v -0.943812 -0.426639 -0.498865
v -0.993735 -0.326793 -0.462594
v -1.035170 -0.243922 -0.432490
v -1.078318 -0.157626 -0.401141
v -0.522514 0.531513 -0.827148
v -0.696890 0.501796 -0.719933
v -0.088013 -0.169077 -1.134168
v -0.170128 -0.301947 -1.089795
v -0.249281 -0.430023 -1.047024
v -0.547676 -0.615970 -0.821069
v -0.907246 0.499677 -0.439868
v -0.942382 0.521392 -0.294467
v -0.965436 0.535640 -0.199066
v -0.994576 0.553650 -0.078477
v -0.888053 0.487815 -0.519293
v -0.924891 0.510582 -0.366849
v -0.981533 0.545589 -0.132450
v -0.619879 0.514920 -0.767283
v -0.184207 0.672033 -0.847870
v 0.105156 0.893085 -0.637635
v -0.263329 1.034815 0.180148
v -0.372850 0.996358 0.259719
v 0.009395 1.099112 -0.076228
v 0.037175 1.073574 -0.161729
v 0.074979 1.038821 -0.278080
v -1.054543 0.099507 0.435794
v -0.999120 0.208479 0.488600
v -0.951334 0.302439 0.534130
v -0.912004 0.379770 0.571603
v -0.979972 0.544625 0.138907
v -0.937520 0.518387 0.314586
v -0.037911 0.783792 0.741578
v -0.829238 0.357237 0.690376
v -0.780434 0.196540 0.792170
v -0.717600 0.671879 0.510191
v -0.741629 0.068766 0.873108
v -0.806976 0.283937 0.736808
v -0.236129 0.389974 1.013027
v -0.098880 0.115477 1.112746
v -0.164624 0.246965 1.064979
v -0.272116 0.461948 0.986881
v -0.214330 0.346376 1.028865
v -0.132469 0.182655 1.088341
v -0.067670 0.053057 1.135422
v 0.347639 0.840099 0.586704
v 0.540185 0.721100 0.586705
v 0.702052 0.093536 0.864043
v 0.146221 0.973328 0.497342
v 0.081718 1.032625 -0.298820
v 0.868492 0.536310 0.401652
v 0.849428 0.543568 0.447871
v 0.838097 0.547882 0.475343
v 0.825206 0.552790 0.506594
v 0.809781 0.558663 0.543992
vn 0.1024 -0.9435 0.3151
vn 0.7002 -0.6617 0.2680
vn -0.2680 -0.9435 0.1947
vn -0.2680 -0.9435 -0.1947
vn 0.1024 -0.9435 -0.3151
vn 0.9050 -0.3304 0.2680
vn 0.0247 -0.3304 0.9435
vn -0.8897 -0.3304 0.3151
vn -0.5746 -0.3304 -0.7488
vn 0.5346 -0.3304 -0.7779
vn 0.8026 -0.1256 0.5831
vn -0.3066 -0.1256 0.9435
vn -0.9921 -0.1256 -0.0000
vn -0.3066 -0.1256 -0.9435
vn 0.8026 -0.1256 -0.5831
vn 0.4089 0.6617 0.6284
vn -0.4713 0.6617 0.5831
vn -0.7002 0.6617 -0.2680
vn 0.0385 0.6617 -0.7488
vn 0.7240 0.6617 -0.1947
vn 0.2680 0.9435 -0.1947
vn 0.4911 0.7947 -0.3568
vn 0.4089 0.6617 -0.6284
vn -0.1024 0.9435 -0.3151
vn -0.1876 0.7947 -0.5773
vn -0.4713 0.6617 -0.5831
vn -0.3313 0.9435 -0.0000
vn -0.6071 0.7947 -0.0000
vn -0.7002 0.6617 0.2680
vn -0.1024 0.9435 0.3151
vn -0.1876 0.7947 0.5773
vn 0.0385 0.6617 0.7488
vn 0.2680 0.9435 0.1947
vn 0.4911 0.7947 0.3568
vn 0.7240 0.6617 0.1947
vn 0.8897 0.3304 -0.3151
vn 0.7947 0.1876 -0.5773
vn 0.5746 0.3304 -0.7488
vn -0.0247 0.3304 -0.9435
vn -0.3035 0.1876 -0.9342
vn -0.5346 0.3304 -0.7779
vn -0.9050 0.3304 -0.2680
vn -0.9822 0.1876 -0.0000
vn -0.9050 0.3304 0.2680
vn -0.5346 0.3304 0.7779
vn -0.3035 0.1876 0.9342
vn -0.0247 0.3304 0.9435
vn 0.5746 0.3304 0.7488
vn 0.7947 0.1876 0.5773
vn 0.8897 0.3304 0.3151
vn 0.3066 0.1256 -0.9435
vn 0.3035 -0.1876 -0.9342
vn 0.0247 -0.3304 -0.9435
vn -0.8026 0.1256 -0.5831
vn -0.7947 -0.1876 -0.5773
vn -0.8897 -0.3304 -0.3151
vn -0.8026 0.1256 0.5831
vn -0.7947 -0.1876 0.5773
vn -0.5746 -0.3304 0.7488
vn 0.3066 0.1256 0.9435
vn 0.3035 -0.1876 0.9342
vn 0.5346 -0.3304 0.7779
vn 0.9921 0.1256 -0.0000
vn 0.9822 -0.1876 -0.0000
vn 0.9050 -0.3304 -0.2680
vn 0.4713 -0.6617 -0.5831
vn 0.1876 -0.7947 -0.5773
vn -0.0385 -0.6617 -0.7488
vn -0.4089 -0.6617 -0.6284
vn -0.4911 -0.7947 -0.3568
vn -0.7240 -0.6617 -0.1947
vn -0.7240 -0.6617 0.1947
vn -0.4911 -0.7947 0.3568
vn -0.4089 -0.6617 0.6284
vn 0.7002 -0.6617 -0.2680
vn 0.6071 -0.7947 -0.0000
vn 0.3313 -0.9435 -0.0000
vn -0.0385 -0.6617 0.7488
vn 0.1876 -0.7947 0.5773
vn 0.4713 -0.6617 0.5831
vt 0.181819 0.000000
vt 0.227273 0.078731
vt 0.136365 0.078731
vt 0.272728 0.157461
vt 0.318182 0.078731
vt 0.363637 0.157461
vt 0.909091 0.000000
vt 0.954545 0.078731
vt 0.863636 0.078731
vt 0.727273 0.000000
vt 0.772727 0.078731
vt 0.681818 0.078731
vt 0.545455 0.000000
vt 0.590909 0.078731
vt 0.500000 0.078731
vt 0.318182 0.236191
vt 0.090910 0.157461
vt 0.181819 0.157461
vt 0.136365 0.236191
vt 0.818182 0.157461
vt 0.909091 0.157461
vt 0.863636 0.236191
vt 0.636364 0.157461
vt 0.675493 0.157461
vt 0.681818 0.236191
vt 0.454546 0.157461
vt 0.545455 0.157461
vt 0.500000 0.236191
vt 0.227273 0.236191
vt 0.045455 0.236191
vt 0.772727 0.236191
vt 0.623693 0.179409
vt 0.409092 0.236191
vt 0.181819 0.314921
vt 0.239975 0.371652
vt 0.227273 0.393651
vt 0.000000 0.314921
vt 0.090910 0.314921
vt 0.019073 0.347957
vt 0.727273 0.314921
vt 0.741656 0.314921
vt 0.772727 0.393651
vt 0.545455 0.314921
vt 0.636364 0.314921
vt 0.623648 0.336946
vt 0.597294 0.382593
vt 0.590909 0.393651
vt 0.363637 0.314921
vt 0.454546 0.314921
vt 0.409092 0.393651
vt 0.500000 0.393651
vt 0.477697 0.432283
vt 0.681818 0.393651
vt 0.614820 0.435066
vt 0.613213 0.432283
vt 0.669773 0.314921
vt 0.686145 0.314921
vt 0.840765 0.433267
vt 0.818182 0.472382
vt 0.818182 0.314921
vt 0.863636 0.393651
vt 0.838652 0.314921
vt 0.045455 0.393651
vt 0.136365 0.393651
vt 0.129441 0.405643
vt 0.090910 0.472382
vt 0.068327 0.433267
vt 0.058352 0.415990
vt 0.116950 0.360024
vt 0.318182 0.393651
vt 0.234197 0.405643
vt 0.254162 0.347079
vt 0.272728 0.314921
vt 0.279346 0.314921
vt 0.590909 0.236191
vt 0.806617 0.314921
vt 0.798664 0.314921
vt 0.788847 0.314921
vt 0.774788 0.314921
vt 0.764121 0.314921
vt 0.753361 0.314921
vt 0.876720 0.258852
vt 0.023967 0.273409
vt 0.035034 0.254240
vt 0.128658 0.249539
vt 0.124059 0.257505
vt 0.237963 0.254705
vt 0.301402 0.314921
vt 0.294240 0.314921
vt 0.289983 0.314921
vt 0.285141 0.314921
vt 0.612599 0.198623
vt 0.601090 0.218557
vt 0.727273 0.157461
vt 0.732608 0.166702
vt 0.764911 0.222652
vt 0.758552 0.211639
vt 0.752446 0.201063
vt 0.745090 0.188321
vt 0.738861 0.177532
vt 0.954545 0.236191
vt 0.944125 0.254240
vt 1.000000 0.157461
vt 0.409092 0.078731
vt 0.363637 0.000000
vt 0.699095 0.314921
vt 0.850740 0.415990
vt 0.630458 0.462153
vt 0.636364 0.472382
vt 0.623834 0.450679
vt 0.886158 0.275200
vt 0.894297 0.289297
vt 0.900995 0.300898
vt 0.909091 0.314921
vt 0.864541 0.314921
vt 0.890018 0.347957
vt 0.010048 0.297518
vt 0.016397 0.286521
vt 0.933058 0.273409
vt 0.925488 0.286521
vt 0.919139 0.297518
vt 0.103833 0.292537
vt 0.098530 0.301722
vt 0.119109 0.266079
vt 0.114370 0.274286
vt 0.107045 0.286973
vt 0.272728 0.472382
vt 0.476090 0.435066
vt 0.467076 0.450679
vt 0.460452 0.462153
vt 0.454546 0.472382
s 0
f 1/1/1 14/2/1 13/3/1
f 2/4/2 14/5/2 16/6/2
f 1/7/3 13/8/3 18/9/3
f 1/10/4 18/11/4 20/12/4
f 1/13/5 20/14/5 17/15/5
f 2/4/6 16/6/6 23/16/6
f 3/17/7 15/18/7 25/19/7
f 4/20/8 19/21/8 27/22/8
f 5/23/9 54/24/9 29/25/9
f 6/26/10 22/27/10 31/28/10
f 2/4/11 23/16/11 26/29/11
f 3/17/12 25/19/12 28/30/12
f 4/20/13 27/22/13 30/31/13
f 5/23/14 29/25/14 53/32/14
f 6/26/15 31/28/15 24/33/15
f 7/34/16 89/35/16 38/36/16
f 8/37/17 34/38/17 79/39/17
f 9/40/18 59/41/18 41/42/18
f 10/43/19 36/44/19 63/45/19 64/46/19 42/47/19
f 11/48/20 37/49/20 39/50/20
f 39/50/21 42/51/21 93/52/21
f 39/50/22 37/49/22 42/51/22
f 37/49/23 10/43/23 42/51/23
f 42/47/24 41/53/24 69/54/24 93/55/24
f 42/47/25 64/46/25 41/53/25
f 36/44/26 49/56/26 62/57/26 41/53/26
f 41/42/27 65/58/27 12/59/27
f 41/42/28 35/60/28 40/61/28
f 35/60/29 74/62/29 40/61/29
f 40/63/30 38/64/30 92/65/30 12/66/30 65/67/30 66/68/30
f 40/63/31 34/38/31 76/69/31
f 34/38/32 7/34/32 76/69/32
f 38/36/33 39/70/33 92/71/33
f 38/36/34 89/35/34 90/72/34 33/73/34 39/70/34
f 33/73/35 98/74/35 39/70/35
f 24/33/36 37/49/36 11/48/36
f 24/33/37 31/28/37 37/49/37
f 31/28/38 10/43/38 37/49/38
f 32/75/39 36/44/39 10/43/39
f 32/75/40 29/25/40 36/44/40
f 29/25/41 49/56/41 36/44/41
f 30/31/42 35/60/42 58/76/42 61/77/42 57/78/42 56/79/42 60/80/42 55/81/42 59/41/42 9/40/42
f 30/31/43 27/22/43 35/60/43
f 27/22/44 70/82/44 35/60/44
f 28/30/45 34/38/45 78/83/45 80/84/45
f 28/30/46 25/19/46 88/85/46 83/86/46
f 25/19/47 7/34/47 88/85/47
f 26/29/48 91/87/48 7/34/48
f 26/29/49 23/16/49 33/73/49 91/87/49
f 23/16/50 11/48/50 94/88/50 95/89/50 96/90/50 97/91/50 98/74/50 33/73/50
f 31/28/51 32/75/51 10/43/51
f 31/28/52 22/27/52 32/75/52
f 22/27/53 5/23/53 53/32/53 52/92/53 51/93/53 32/75/53
f 29/25/54 30/31/54 9/40/54
f 29/25/55 21/94/55 43/95/55
f 21/94/56 4/20/56 30/31/56 48/96/56 47/97/56 46/98/56 45/99/56 44/100/56 43/95/56
f 27/22/57 28/101/57 80/102/57
f 27/22/58 19/21/58 28/101/58
f 19/21/59 3/103/59 28/101/59
f 25/19/60 26/29/60 7/34/60
f 25/19/61 15/18/61 26/29/61
f 15/18/62 2/4/62 26/29/62
f 23/16/63 24/33/63 11/48/63
f 23/16/64 16/6/64 24/33/64
f 16/6/65 6/26/65 24/33/65
f 17/15/66 22/27/66 6/26/66
f 17/15/67 20/14/67 22/27/67
f 20/14/68 5/23/68 22/27/68
f 20/12/69 21/94/69 54/24/69 5/23/69
f 20/12/70 18/11/70 21/94/70
f 18/11/71 4/20/71 21/94/71
f 18/9/72 19/21/72 4/20/72
f 18/9/73 13/8/73 19/21/73
f 13/8/74 3/103/74 19/21/74
f 16/6/75 17/104/75 6/26/75
f 16/6/76 14/5/76 17/104/76
f 14/5/77 1/105/77 17/104/77
f 13/3/78 15/18/78 3/17/78
f 13/3/79 14/2/79 15/18/79
f 14/2/80 2/4/80 15/18/80
f 43/95/55 44/100/55 29/25/55
f 29/25/55 44/100/55 45/99/55
f 45/99/55 46/98/55 29/25/55
f 29/25/55 46/98/55 47/97/55
f 47/97/55 48/96/55 29/25/55
f 29/25/55 48/96/55 30/31/55
f 49/56/41 29/25/41 50/106/41 62/57/41
f 50/106/41 29/25/41 9/40/41
f 51/93/14 29/25/14 32/75/14
f 52/92/14 29/25/14 51/93/14
f 53/32/14 29/25/14 52/92/14
f 29/25/9 54/24/9 21/94/9
f 41/42/18 60/80/18 56/79/18
f 56/79/18 57/78/18 41/42/18
f 41/42/18 61/77/18 58/76/18
f 58/76/18 35/60/18 41/42/18
f 41/42/18 59/41/18 55/81/18
f 60/80/18 41/42/18 55/81/18
f 61/77/18 41/42/18 57/78/18
f 41/53/26 62/57/26 50/106/26 9/40/26
f 41/53/25 63/45/25 36/44/25
f 41/53/25 64/46/25 63/45/25
f 65/58/27 41/42/27 66/107/27
f 66/107/27 41/42/27 40/61/27
f 67/108/24 41/53/24 12/109/24
f 68/110/24 41/53/24 67/108/24
f 69/54/24 41/53/24 68/110/24
f 35/60/44 70/82/44 71/111/44
f 71/111/44 72/112/44 35/60/44
f 35/60/44 72/112/44 73/113/44
f 73/113/44 8/114/44 75/115/44 74/62/44 35/60/44
f 40/61/29 74/62/29 75/115/29
f 75/115/29 8/114/29 79/116/29 40/61/29
f 76/69/31 38/64/31 40/63/31
f 77/117/45 34/38/45 8/37/45
f 78/83/45 34/38/45 77/117/45 81/118/45
f 79/39/17 34/38/17 40/63/17
f 80/102/57 78/119/57 81/120/57 27/22/57
f 27/22/57 81/120/57 77/121/57 8/114/57 73/113/57 72/112/57 71/111/57 70/82/57
f 82/122/46 85/123/46 34/38/46 28/30/46
f 83/86/46 87/124/46 84/125/46 86/126/46 82/122/46 28/30/46
f 84/125/47 7/34/47 86/126/47
f 85/123/47 7/34/47 34/38/47
f 86/126/47 7/34/47 82/122/47
f 87/124/47 7/34/47 84/125/47
f 83/86/47 7/34/47 87/124/47
f 88/85/47 7/34/47 83/86/47
f 82/122/47 7/34/47 85/123/47
f 89/35/16 7/34/16 90/72/16
f 90/72/16 7/34/16 33/73/16
f 76/69/32 7/34/32 38/64/32
f 7/34/48 91/87/48 33/73/48
f 92/71/33 39/70/33 12/127/33
f 93/52/21 69/128/21 68/129/21 67/130/21 12/131/21 39/50/21
f 39/70/35 94/88/35 11/48/35
f 39/70/35 95/89/35 94/88/35
f 39/70/35 96/90/35 95/89/35
f 39/70/35 97/91/35 96/90/35
f 39/70/35 98/74/35 97/91/35
