# Blender 4.0.2
# www.blender.org
mtllib test_sphere3.mtl
o Icosphere
v -0.015373 -1.224958 -0.000001
v 0.833722 -0.576315 0.616896
v -0.339692 -0.576315 0.998168
v -1.064910 -0.576310 -0.000001
v -0.339692 -0.576315 -0.998169
v 0.833722 -0.576315 -0.616897
v 0.308946 0.473238 0.998168
v -0.864468 0.473238 0.616896
v -0.864468 0.473238 -0.616897
v 0.308946 0.473238 -0.998169
v 1.034165 0.473233 -0.000001
v -0.015373 1.121881 -0.000001
v -0.206001 -1.049713 0.586703
v 0.483709 -1.049713 0.362599
v 0.293083 -0.668449 0.949309
v 0.982794 -0.668447 -0.000001
v 0.483709 -1.049713 -0.362601
v -0.632274 -1.049710 -0.000001
v -0.822907 -0.668448 0.586705
v -0.206001 -1.049713 -0.586705
v -0.822907 -0.668448 -0.586707
v 0.293083 -0.668449 -0.949311
v 1.100617 -0.051538 0.362601
v 1.100617 -0.051538 -0.362602
v -0.015373 -0.051538 1.173419
v 0.674346 -0.051538 0.949315
v -1.131362 -0.051538 0.362601
v -0.705092 -0.051538 0.949315
v -0.705092 -0.051538 -0.949317
v -1.131362 -0.051538 -0.362602
v 0.674346 -0.051538 -0.949317
v -0.015373 -0.051538 -1.173420
v 0.792162 0.565371 0.586705
v -0.323828 0.565372 0.949309
v -1.013539 0.565370 -0.000001
v -0.323828 0.565372 -0.949311
v 0.792162 0.565371 -0.586707
v 0.175256 0.946636 0.586703
v 0.601529 0.946633 -0.000001
v -0.514455 0.946636 0.362599
v -0.514455 0.946636 -0.362601
v 0.175256 0.946636 -0.586705
v -0.859114 -0.596034 -0.560401
v -0.901543 -0.511177 -0.529575
v -0.943812 -0.426639 -0.498865
v -0.993735 -0.326793 -0.462594
v -1.035170 -0.243922 -0.432490
v -1.078318 -0.157626 -0.401141
v -0.522514 0.531513 -0.827148
v -0.696890 0.501796 -0.719933
v -0.088013 -0.169077 -1.134168
v -0.170128 -0.301947 -1.089795
v -0.249281 -0.430023 -1.047024
v -0.547676 -0.615970 -0.821069
v -0.907246 0.499677 -0.439868
v -0.942382 0.521392 -0.294467
v -0.965436 0.535640 -0.199066
v -0.994576 0.553650 -0.078477
v -0.888053 0.487815 -0.519293
v -0.924891 0.510582 -0.366849
v -0.981533 0.545589 -0.132450
v -0.619879 0.514920 -0.767283
v -0.184207 0.672033 -0.847870
v 0.105156 0.893085 -0.637635
v -0.263329 1.034815 0.180148
v -0.372850 0.996358 0.259719
v 0.009395 1.099112 -0.076228
v 0.037175 1.073574 -0.161729
v 0.074979 1.038821 -0.278080
v -1.054543 0.099507 0.435794
v -0.999120 0.208479 0.488600
v -0.951334 0.302439 0.534130
v -0.912004 0.379770 0.571603
v -0.979972 0.544625 0.138907
v -0.937520 0.518387 0.314586
v -0.037911 0.783792 0.741578
v -0.829238 0.357237 0.690376
v -0.780434 0.196540 0.792170
v -0.717600 0.671879 0.510191
v -0.741629 0.068766 0.873108
v -0.806976 0.283937 0.736808
v -0.236129 0.389974 1.013027
v -0.098880 0.115477 1.112746
v -0.164624 0.246965 1.064979
v -0.272116 0.461948 0.986881
v -0.214330 0.346376 1.028865
v -0.132469 0.182655 1.088341
v -0.067670 0.053057 1.135422
v 0.347639 0.840099 0.586704
v 0.540185 0.721100 0.586705
v 0.702052 0.093536 0.864043
v 0.146221 0.973328 0.497342
v 0.081718 1.032625 -0.298820
v 0.868492 0.536310 0.401652
v 0.849428 0.543568 0.447871
v 0.838097 0.547882 0.475343
v 0.825206 0.552790 0.506594
v 0.809781 0.558663 0.543992
vn 0.1024 -0.9435 0.3151
vn 0.7002 -0.6617 0.2680
vn -0.2680 -0.9435 0.1947
vn -0.2680 -0.9435 -0.1947
vn 0.1024 -0.9435 -0.3151
vn 0.9050 -0.3304 0.2680
vn 0.0247 -0.3304 0.9435
vn -0.8897 -0.3304 0.3151
vn -0.5746 -0.3304 -0.7488
vn 0.5346 -0.3304 -0.7779
vn 0.8026 -0.1256 0.5831
vn -0.3066 -0.1256 0.9435
vn -0.9921 -0.1256 -0.0000
vn -0.3066 -0.1256 -0.9435
vn 0.8026 -0.1256 -0.5831
vn 0.4089 0.6617 0.6284
vn -0.4713 0.6617 0.5831
vn -0.7002 0.6617 -0.2680
vn 0.0385 0.6617 -0.7488
vn 0.7240 0.6617 -0.1947
vn 0.2680 0.9435 -0.1947
vn 0.4911 0.7947 -0.3568
vn 0.4089 0.6617 -0.6284
vn -0.1024 0.9435 -0.3151
vn -0.1876 0.7947 -0.5773
vn -0.4713 0.6617 -0.5831
vn -0.3313 0.9435 -0.0000
vn -0.6071 0.7947 -0.0000
vn -0.7002 0.6617 0.2680
vn -0.1024 0.9435 0.3151
vn -0.1876 0.7947 0.5773
vn 0.0385 0.6617 0.7488
vn 0.2680 0.9435 0.1947
vn 0.4911 0.7947 0.3568
vn 0.7240 0.6617 0.1947
vn 0.8897 0.3304 -0.3151
vn 0.7947 0.1876 -0.5773
vn 0.5746 0.3304 -0.7488
vn -0.0247 0.3304 -0.9435
vn -0.3035 0.1876 -0.9342
vn -0.5346 0.3304 -0.7779
vn -0.9050 0.3304 -0.2680
vn -0.9822 0.1876 -0.0000
vn -0.9050 0.3304 0.2680
vn -0.5346 0.3304 0.7779
vn -0.3035 0.1876 0.9342
vn -0.0247 0.3304 0.9435
vn 0.5746 0.3304 0.7488
vn 0.7947 0.1876 0.5773
vn 0.8897 0.3304 0.3151
vn 0.3066 0.1256 -0.9435
vn 0.3035 -0.1876 -0.9342
vn 0.0247 -0.3304 -0.9435
vn -0.8026 0.1256 -0.5831
vn -0.7947 -0.1876 -0.5773
vn -0.8897 -0.3304 -0.3151
vn -0.8026 0.1256 0.5831
vn -0.7947 -0.1876 0.5773
vn -0.5746 -0.3304 0.7488
vn 0.3066 0.1256 0.9435
vn 0.3035 -0.1876 0.9342
vn 0.5346 -0.3304 0.7779
vn 0.9921 0.1256 -0.0000
vn 0.9822 -0.1876 -0.0000
vn 0.9050 -0.3304 -0.2680
vn 0.4713 -0.6617 -0.5831
vn 0.1876 -0.7947 -0.5773
vn -0.0385 -0.6617 -0.7488
vn -0.4089 -0.6617 -0.6284
vn -0.4911 -0.7947 -0.3568
vn -0.7240 -0.6617 -0.1947
vn -0.7240 -0.6617 0.1947
vn -0.4911 -0.7947 0.3568
vn -0.4089 -0.6617 0.6284
vn 0.7002 -0.6617 -0.2680
vn 0.6071 -0.7947 -0.0000
vn 0.3313 -0.9435 -0.0000
vn -0.0385 -0.6617 0.7488
vn 0.1876 -0.7947 0.5773
vn 0.4713 -0.6617 0.5831
s 0
f 1//1 14//1 13//1
f 2//2 14//2 16//2
f 1//3 13//3 18//3
f 1//4 18//4 20//4
f 1//5 20//5 17//5
f 2//6 16//6 23//6
f 3//7 15//7 25//7
f 4//8 19//8 27//8
f 5//9 54//9 29//9
f 6//10 22//10 31//10
f 2//11 23//11 26//11
f 3//12 25//12 28//12
f 4//13 27//13 30//13
f 5//14 29//14 53//14
f 6//15 31//15 24//15
f 7//16 89//16 38//16
f 8//17 34//17 79//17
f 9//18 59//18 41//18
f 10//19 36//19 63//19 64//19 42//19
f 11//20 37//20 39//20
f 39//21 42//21 93//21
f 39//22 37//22 42//22
f 37//23 10//23 42//23
f 42//24 41//24 69//24 93//24
f 42//25 64//25 41//25
f 36//26 49//26 62//26 41//26
f 41//27 65//27 12//27
f 41//28 35//28 40//28
f 35//29 74//29 40//29
f 40//30 38//30 92//30 12//30 65//30 66//30
f 40//31 34//31 76//31
f 34//32 7//32 76//32
f 38//33 39//33 92//33
f 38//34 89//34 90//34 33//34 39//34
f 33//35 98//35 39//35
f 24//36 37//36 11//36
f 24//37 31//37 37//37
f 31//38 10//38 37//38
f 32//39 36//39 10//39
f 32//40 29//40 36//40
f 29//41 49//41 36//41
f 30//42 35//42 58//42 61//42 57//42 56//42 60//42 55//42 59//42 9//42
f 30//43 27//43 35//43
f 27//44 70//44 35//44
f 28//45 34//45 78//45 80//45
f 28//46 25//46 88//46 83//46
f 25//47 7//47 88//47
f 26//48 91//48 7//48
f 26//49 23//49 33//49 91//49
f 23//50 11//50 94//50 95//50 96//50 97//50 98//50 33//50
f 31//51 32//51 10//51
f 31//52 22//52 32//52
f 22//53 5//53 53//53 52//53 51//53 32//53
f 29//54 30//54 9//54
f 29//55 21//55 43//55
f 21//56 4//56 30//56 48//56 47//56 46//56 45//56 44//56 43//56
f 27//57 28//57 80//57
f 27//58 19//58 28//58
f 19//59 3//59 28//59
f 25//60 26//60 7//60
f 25//61 15//61 26//61
f 15//62 2//62 26//62
f 23//63 24//63 11//63
f 23//64 16//64 24//64
f 16//65 6//65 24//65
f 17//66 22//66 6//66
f 17//67 20//67 22//67
f 20//68 5//68 22//68
f 20//69 21//69 54//69 5//69
f 20//70 18//70 21//70
f 18//71 4//71 21//71
f 18//72 19//72 4//72
f 18//73 13//73 19//73
f 13//74 3//74 19//74
f 16//75 17//75 6//75
f 16//76 14//76 17//76
f 14//77 1//77 17//77
f 13//78 15//78 3//78
f 13//79 14//79 15//79
f 14//80 2//80 15//80
f 43//55 44//55 29//55
f 29//55 44//55 45//55
f 45//55 46//55 29//55
f 29//55 46//55 47//55
f 47//55 48//55 29//55
f 29//55 48//55 30//55
f 49//41 29//41 50//41 62//41
f 50//41 29//41 9//41
f 51//14 29//14 32//14
f 52//14 29//14 51//14
f 53//14 29//14 52//14
f 29//9 54//9 21//9
f 41//18 60//18 56//18
f 56//18 57//18 41//18
f 41//18 61//18 58//18
f 58//18 35//18 41//18
f 41//18 59//18 55//18
f 60//18 41//18 55//18
f 61//18 41//18 57//18
f 41//26 62//26 50//26 9//26
f 41//25 63//25 36//25
f 41//25 64//25 63//25
f 65//27 41//27 66//27
f 66//27 41//27 40//27
f 67//24 41//24 12//24
f 68//24 41//24 67//24
f 69//24 41//24 68//24
f 35//44 70//44 71//44
f 71//44 72//44 35//44
f 35//44 72//44 73//44
f 73//44 8//44 75//44 74//44 35//44
f 40//29 74//29 75//29
f 75//29 8//29 79//29 40//29
f 76//31 38//31 40//31
f 77//45 34//45 8//45
f 78//45 34//45 77//45 81//45
f 79//17 34//17 40//17
f 80//57 78//57 81//57 27//57
f 27//57 81//57 77//57 8//57 73//57 72//57 71//57 70//57
f 82//46 85//46 34//46 28//46
f 83//46 87//46 84//46 86//46 82//46 28//46
f 84//47 7//47 86//47
f 85//47 7//47 34//47
f 86//47 7//47 82//47
f 87//47 7//47 84//47
f 83//47 7//47 87//47
f 88//47 7//47 83//47
f 82//47 7//47 85//47
f 89//16 7//16 90//16
f 90//16 7//16 33//16
f 76//32 7//32 38//32
f 7//48 91//48 33//48
f 92//33 39//33 12//33
f 93//21 69//21 68//21 67//21 12//21 39//21
f 39//35 94//35 11//35
f 39//35 95//35 94//35
f 39//35 96//35 95//35
f 39//35 97//35 96//35
f 39//35 98//35 97//35
